<?xml version="1.0" standalone="no"?>
<!DOCTYPE svg PUBLIC "-//W3C//DTD SVG 20010904//EN"
 "http://www.w3.org/TR/2001/REC-SVG-20010904/DTD/svg10.dtd">
<svg version="1.0" xmlns="http://www.w3.org/2000/svg"
 width="107" height="128" viewBox="0 0 107 128"
 preserveAspectRatio="xMidYMid meet">

<g transform="translate(0.000000,160.000000) scale(0.100000,-0.100000)"
fill="#000000" stroke="none">
<path d="M684 895 c-10 -8 -14 -15 -8 -15 5 0 19 7 30 15 10 8 14 15 8 15 -5
0 -19 -7 -30 -15z"/>
<path d="M797 879 c7 -7 15 -10 18 -7 3 3 -2 9 -12 12 -14 6 -15 5 -6 -5z"/>
<path d="M1004 839 c-3 -5 9 -9 25 -9 17 0 31 2 31 4 0 8 -51 13 -56 5z"/>
<path d="M721 806 c-14 -8 -19 -16 -13 -20 6 -3 13 -2 17 4 4 6 13 5 25 -2 15
-10 22 -10 32 0 13 13 11 17 -17 25 -11 4 -31 0 -44 -7z"/>
<path d="M1000 760 c0 -18 29 -23 47 -9 14 12 16 12 11 -6 -4 -15 0 -21 13
-21 25 0 24 22 0 36 -25 13 -71 13 -71 0z"/>
<path d="M807 483 c-27 -7 -9 -23 26 -23 18 0 50 -7 72 -14 35 -12 41 -12 51
3 18 23 2 34 -30 21 -21 -7 -34 -6 -56 5 -30 15 -33 16 -63 8z"/>

</g>
</svg>
